<?xml version="1.0" encoding="UTF-8"?><svg id="Layer_1" xmlns="http://www.w3.org/2000/svg" viewBox="0 0 56 56"><g><path d="M36.93,53.21c-.31,0-.61-.17-.76-.44-.15-.27-.15-.61,.01-.88l2.34-3.9c.25-.42,.79-.55,1.2-.3,.42,.25,.55,.79,.3,1.2l-1.49,2.49c7.37-.8,13.12-7.06,13.12-14.63,0-.48,.39-.88,.88-.88s.88,.39,.88,.88c0,9.08-7.39,16.47-16.47,16.47Z" fill="#010101"/><path d="M3.52,19.8c-.48,0-.88-.39-.88-.88C2.65,9.84,10.03,2.46,19.11,2.46c.32,0,.61,.17,.76,.44s.15,.61-.01,.88l-2.34,3.9c-.25,.41-.78,.55-1.2,.3-.41-.25-.55-.79-.3-1.2l1.49-2.49c-7.37,.8-13.12,7.05-13.12,14.63,0,.48-.39,.88-.88,.88Z" fill="#010101"/><g><path d="M33.32,39.05c0,5.06-4.1,9.17-9.17,9.17s-9.17-4.1-9.17-9.17,4.1-9.17,9.17-9.17c.24,0,.47,.01,.71,.03,4.5,.34,8.1,3.94,8.44,8.44,.01,.24,.03,.47,.03,.71Z" fill="#ffcc0b"/><path d="M20.61,49.93c-8.07,0-14.63-6.56-14.63-14.63s6.56-14.63,14.63-14.63c.37,0,.72,.02,1.09,.04,7.17,.54,12.95,6.32,13.49,13.46,.02,.43,.04,.77,.04,1.12,0,8.07-6.56,14.63-14.63,14.63Zm0-27.51c-7.1,0-12.88,5.78-12.88,12.88s5.78,12.88,12.88,12.88,12.88-5.78,12.88-12.88c0-.32-.02-.63-.04-.95-.48-6.32-5.57-11.41-11.85-11.89-.34-.02-.66-.04-.99-.04Z" fill="#010101"/><path d="M35.43,35.12h-1.1c-.46,0-.84-.35-.87-.81-.47-6.28-5.57-11.38-11.85-11.85-.46-.03-.81-.41-.81-.87v-1.1c0-8.07,6.56-14.63,14.63-14.63s14.63,6.56,14.63,14.63-6.56,14.63-14.63,14.63Zm-.31-1.75h.31c7.1,0,12.88-5.78,12.88-12.88s-5.78-12.88-12.88-12.88-12.88,5.78-12.88,12.88v.31c6.49,.86,11.7,6.07,12.57,12.57Z" fill="#010101"/><g><path d="M25.61,29.64h-8.48c-.48,0-.88-.39-.88-.88s.39-.88,.88-.88h8.48c.48,0,.88,.39,.88,.88s-.39,.88-.88,.88Z" fill="#010101"/><path d="M25.61,34.27H15.62c-.48,0-.88-.39-.88-.88s.39-.88,.88-.88h9.99c.48,0,.88,.39,.88,.88s-.39,.88-.88,.88Z" fill="#010101"/><path d="M22.32,44.78c-.21,0-.41-.07-.58-.22l-6.68-5.89c-.36-.32-.4-.87-.08-1.24,.32-.36,.88-.4,1.23-.08l6.68,5.89c.36,.32,.4,.87,.08,1.24-.17,.19-.41,.3-.66,.3Z" fill="#010101"/><path d="M17.13,38.89h-1.5c-.48,0-.88-.39-.88-.88s.39-.88,.88-.88h1.5c1.71,0,3.11-1.68,3.11-3.75s-1.4-3.75-3.11-3.75h-1.5c-.48,0-.88-.39-.88-.88s.39-.88,.88-.88h1.5c2.68,0,4.86,2.47,4.86,5.5s-2.18,5.5-4.86,5.5Z" fill="#010101"/></g></g></g><g opacity="0"><rect x=".02" y="-.1" width="56" height="56" fill="none"/></g></svg>