<svg width="56" height="56" viewBox="0 0 56 56" fill="none" xmlns="http://www.w3.org/2000/svg">
<path d="M31.1501 27.4072C35.4376 27.4072 38.9201 23.9247 38.9201 19.6372C38.9201 15.3497 35.4376 11.8672 31.1501 11.8672C26.8626 11.8672 23.3801 15.3497 23.3801 19.6372C23.3801 23.9247 26.8626 27.4072 31.1501 27.4072Z" fill="#FFCB09"/>
<path d="M48.0379 51.3303C48.0379 45.3103 42.0529 40.4453 34.6679 40.4453C27.2829 40.4453 21.2979 45.3103 21.2979 51.3303H48.0204H48.0379Z" fill="#FFCB09"/>
<path d="M28.0001 28.8763C21.0876 28.8763 15.4526 23.2588 15.4526 16.3288C15.4526 9.39875 21.0701 3.78125 28.0001 3.78125C34.9301 3.78125 40.5476 9.39875 40.5476 16.3288C40.5476 23.2588 34.9301 28.8763 28.0001 28.8763ZM28.0001 5.54875C22.0501 5.54875 17.2026 10.3963 17.2026 16.3463C17.2026 22.2963 22.0501 27.1438 28.0001 27.1438C33.9501 27.1438 38.7976 22.2963 38.7976 16.3463C38.7976 10.3963 33.9501 5.54875 28.0001 5.54875Z" fill="black"/>
<path d="M48.0377 52.2025H7.96265C7.47265 52.2025 7.08765 51.8175 7.08765 51.3275C7.08765 41.8425 16.4676 34.125 28.0001 34.125C39.5326 34.125 48.9127 41.8425 48.9127 51.3275C48.9127 51.8175 48.5277 52.2025 48.0377 52.2025ZM8.85515 50.4525H47.1451C46.5851 42.3325 38.2201 35.875 28.0001 35.875C17.7801 35.875 9.43265 42.3325 8.85515 50.4525Z" fill="black"/>
</svg>
