<svg width="56" height="56" viewBox="0 0 56 56" fill="none" xmlns="http://www.w3.org/2000/svg">
<path d="M10.01 25.55C7.75249 25.55 5.9325 23.7125 5.9325 21.4725C5.9325 19.215 7.76999 17.395 10.01 17.395C12.25 17.395 14.0875 19.2325 14.0875 21.4725C14.0875 23.73 12.25 25.55 10.01 25.55V25.55Z" fill="#FFCB09"/>
<path d="M11.4975 27.5626C7.4725 27.5626 4.1825 24.2901 4.1825 20.2476C4.1825 16.2051 7.455 12.9326 11.4975 12.9326C15.54 12.9326 18.8125 16.2051 18.8125 20.2476C18.8125 24.2901 15.54 27.5626 11.4975 27.5626ZM11.4975 14.7001C8.435 14.7001 5.9325 17.2026 5.9325 20.2651C5.9325 23.3276 8.4175 25.8301 11.4975 25.8301C14.5775 25.8301 17.0625 23.3451 17.0625 20.2651C17.0625 17.1851 14.56 14.7001 11.4975 14.7001Z" fill="black"/>
<path d="M16.7825 46.0426H3.5C3.01 46.0426 2.625 45.6576 2.625 45.1676C2.625 40.0051 3.9025 36.1201 6.44 33.6351C8.75 31.3601 12.075 30.2577 16.38 30.3102C19.775 30.3802 23.2225 30.0652 23.8175 27.4227C23.9225 26.9502 24.395 26.6527 24.8675 26.7577C25.34 26.8627 25.6375 27.3352 25.5325 27.8077C24.535 32.2002 18.865 32.0951 16.45 32.0426C12.6175 31.9901 9.625 32.9177 7.665 34.8602C5.5825 36.9077 4.515 39.9876 4.3925 44.2751H16.8C17.29 44.2751 17.675 44.6601 17.675 45.1501C17.675 45.6401 17.29 46.0251 16.8 46.0251L16.7825 46.0426Z" fill="black"/>
<path d="M46.3225 25.55C44.065 25.55 42.245 23.7125 42.245 21.4725C42.245 19.215 44.0825 17.395 46.3225 17.395C48.5625 17.395 50.4 19.2325 50.4 21.4725C50.4 23.73 48.5625 25.55 46.3225 25.55Z" fill="#FFCB09"/>
<path d="M44.59 27.5626C40.565 27.5626 37.275 24.2901 37.275 20.2476C37.275 16.2051 40.5475 12.9326 44.59 12.9326C48.6325 12.9326 51.905 16.2051 51.905 20.2476C51.905 24.2901 48.6325 27.5626 44.59 27.5626ZM44.59 14.7001C41.5275 14.7001 39.025 17.2026 39.025 20.2651C39.025 23.3276 41.5275 25.8301 44.59 25.8301C47.6525 25.8301 50.155 23.3451 50.155 20.2651C50.155 17.1851 47.67 14.7001 44.59 14.7001Z" fill="black"/>
<path d="M52.5 46.0425H40.5125C40.0225 46.0425 39.6375 45.6575 39.6375 45.1675C39.6375 44.6775 40.0225 44.2925 40.5125 44.2925H51.625C51.59 38.5875 51.0475 32.48 39.6025 32.06C32.9 31.7975 27.7725 27.8075 27.1425 22.33C27.09 21.8575 27.44 21.42 27.9125 21.3675C28.385 21.315 28.8225 21.665 28.875 22.1375C29.4 26.7225 33.845 30.1 39.6725 30.31C53.3925 30.835 53.3925 39.4625 53.3925 45.1675C53.3925 45.6575 53.0075 46.0425 52.5175 46.0425H52.5Z" fill="black"/>
<path d="M28.245 15.5225C27.755 15.5225 27.37 15.1375 27.37 14.6475V10.8325C27.37 10.3425 27.755 9.95752 28.245 9.95752C28.735 9.95752 29.12 10.3425 29.12 10.8325V14.6475C29.12 15.1375 28.735 15.5225 28.245 15.5225Z" fill="black"/>
<path d="M32.4799 18.0249C32.3399 18.0249 32.1999 17.9899 32.0774 17.9199C31.6574 17.6924 31.4824 17.1674 31.7099 16.7299L33.4949 13.3699C33.7224 12.9499 34.2474 12.7749 34.6849 13.0024C35.1049 13.2299 35.2799 13.7549 35.0524 14.1924L33.2674 17.5524C33.1099 17.8499 32.8124 18.0249 32.4974 18.0249H32.4799Z" fill="black"/>
<path d="M23.695 17.8326C23.3975 17.8326 23.1 17.6751 22.925 17.3951L21.0525 14.0701C20.8075 13.6501 20.965 13.1251 21.385 12.8801C21.805 12.6526 22.33 12.7926 22.575 13.2126L24.4475 16.5376C24.6925 16.9576 24.535 17.4826 24.115 17.7276C23.975 17.7976 23.835 17.8326 23.6775 17.8326H23.695Z" fill="black"/>
</svg>
